<?xml version="1.0" encoding="UTF-8"?>
<svg version="1.1" xmlns="http://www.w3.org/2000/svg" width="600" height="600">
<path d="M0 0 C13.07502794 10.19249296 18.94283278 25.2055913 21.02294922 41.24853516 C23.88902427 68.87996413 16.2910128 95.80972238 4.25 120.4375 C3.92773438 121.10120605 3.60546875 121.76491211 3.2734375 122.44873047 C-1.49095394 132.13487384 -7.19871945 140.87064296 -13.75 149.4375 C-14.45769531 150.37078125 -15.16539062 151.3040625 -15.89453125 152.265625 C-32.0155154 172.72342307 -54.1969361 192.43134327 -80.66308594 197.28369141 C-83.06581798 197.46077624 -85.1618532 197.17564377 -87.5390625 196.79296875 C-95.27847111 195.61843121 -95.27847111 195.61843121 -102.75 197.4375 C-109.95123861 204.22641185 -115.40395803 213.62080448 -119.75 222.4375 C-119.75 223.0975 -119.75 223.7575 -119.75 224.4375 C-117.91790544 226.43055937 -117.91790544 226.43055937 -114.75 227.4375 C-111.00870409 227.18317219 -107.40162356 226.26233732 -103.75 225.4375 C-79.26946446 220.14441123 -55.20655596 220.48121669 -33.125 233.625 C-12.30297091 247.56618615 -2.66874836 270.6856107 2.25 294.4375 C5.73120213 315.63719096 1.65410052 336.75385098 -10.75 354.4375 C-24.69063981 372.73282243 -46.0450762 381.17859776 -67.75 386.4375 C-67.04875 387.25992187 -66.3475 388.08234375 -65.625 388.9296875 C-60.6732314 394.75075685 -55.78199471 400.6027372 -51.03125 406.58984375 C-43.78716293 415.63254833 -36.38218417 424.54981126 -28.875 433.375 C-25.18008666 437.71889509 -21.57597613 442.12261718 -18.03125 446.58984375 C-10.78716293 455.63254833 -3.38218417 464.54981126 4.125 473.375 C7.81991334 477.71889509 11.42402387 482.12261718 14.96875 486.58984375 C17.96927451 490.33536151 21.0128338 494.04444333 24.0625 497.75 C24.66707031 498.48468506 25.27164062 499.21937012 25.89453125 499.97631836 C29.12940102 503.89738575 32.39149674 507.79175633 35.6965332 511.65380859 C52.61950367 531.42903306 52.61950367 531.42903306 52.5390625 541.671875 C52.00889167 546.74432028 48.95493378 550.17001623 45.25 553.4375 C40.04780172 555.6729828 34.89438921 556.01291689 29.625 553.91796875 C21.36271611 548.7676306 15.39037826 539.48219314 9.52270508 531.87084961 C5.49596875 526.66712215 1.21458584 521.7147721 -3.12011719 516.7668457 C-6.77558051 512.58644211 -10.29070234 508.32462488 -13.7265625 503.9609375 C-16.17801178 500.90372469 -18.70896224 497.92030731 -21.25 494.9375 C-25.14086861 490.36834581 -28.92929306 485.73576942 -32.65625 481.03125 C-35.13811041 477.95670651 -37.68848513 474.94570956 -40.25 471.9375 C-44.13957434 467.36963477 -47.92748079 462.73903863 -51.65234375 458.03515625 C-54.57738914 454.41289334 -57.59544186 450.87187502 -60.63085938 447.34179688 C-64.49119582 442.82560595 -68.12842598 438.14640395 -71.75 433.4375 C-71.68941406 434.21762451 -71.62882812 434.99774902 -71.56640625 435.80151367 C-71.28917608 439.40897123 -71.01955565 443.01696118 -70.75 446.625 C-70.60691406 448.46481445 -70.60691406 448.46481445 -70.4609375 450.34179688 C-69.86628032 458.39090658 -69.62786551 466.36729423 -69.75 474.4375 C-70.8023584 474.45208252 -71.8547168 474.46666504 -72.93896484 474.48168945 C-138.71428859 475.4565308 -205.82223396 480.56235851 -270.17602539 494.74780273 C-271.81365845 495.10467163 -271.81365845 495.10467163 -273.484375 495.46875 C-274.41475586 495.68080078 -275.34513672 495.89285156 -276.30371094 496.11132812 C-278.79776082 496.44386811 -280.38404014 496.23122353 -282.75 495.4375 C-282.83564209 494.84211426 -282.92128418 494.24672852 -283.00952148 493.63330078 C-283.39861253 490.94250371 -283.79299001 488.25250768 -284.1875 485.5625 C-284.32220703 484.62535156 -284.45691406 483.68820312 -284.59570312 482.72265625 C-284.72783203 481.82675781 -284.85996094 480.93085938 -284.99609375 480.0078125 C-285.11654053 479.18039551 -285.2369873 478.35297852 -285.36108398 477.50048828 C-285.66256672 475.38422233 -285.66256672 475.38422233 -286.75 473.4375 C-287.19837471 474.12112358 -287.19837471 474.12112358 -287.6558075 474.81855774 C-303.18402449 498.48811537 -318.80801673 522.08745585 -334.67651367 545.53051758 C-335.51905449 546.77580482 -335.51905449 546.77580482 -336.37861633 548.04624939 C-337.48928785 549.68655765 -338.60131571 551.32594843 -339.71476746 552.96437073 C-342.67551607 557.32974037 -345.59238839 561.7187421 -348.46142578 566.14501953 C-349.07977798 567.09236465 -349.69813019 568.03970978 -350.33522034 569.01576233 C-351.51492078 570.82619351 -352.68621973 572.64213946 -353.84727478 574.46458435 C-357.55884581 580.14190219 -361.5592961 585.34214805 -367.75 588.4375 C-372.70482094 588.98110446 -376.62125852 589.00187074 -381.125 586.75 C-386.04432001 582.41631332 -388.11710276 579.47126628 -388.96484375 573.01171875 C-388.34930177 565.63640663 -384.22883769 559.70302678 -380.1328125 553.796875 C-379.57266449 552.97407043 -379.01251648 552.15126587 -378.43539429 551.30352783 C-377.22386772 549.52531314 -376.00870363 547.74957239 -374.7902832 545.97607422 C-371.48068894 541.15743997 -368.19900882 536.3198302 -364.9140625 531.484375 C-364.23438416 530.48531128 -363.55470581 529.48624756 -362.85443115 528.45690918 C-355.87823025 518.18778605 -349.05764487 507.8187819 -342.25 497.4375 C-329.29248048 477.69679131 -316.1290935 458.09905909 -302.88438416 438.55007935 C-300.15656661 434.52323537 -297.44194609 430.4884208 -294.75 426.4375 C-295.85734497 426.34045776 -295.85734497 426.34045776 -296.98706055 426.24145508 C-327.39727957 423.49531872 -359.33123292 418.87930547 -381.2421875 395.26171875 C-396.44292944 376.87118381 -401.56571347 356.92917275 -399.75 333.4375 C-399.17503658 328.33087226 -398.09132743 323.39634685 -396.75 318.4375 C-396.48316406 317.43976563 -396.21632813 316.44203125 -395.94140625 315.4140625 C-392.06543127 302.56305213 -385.85301972 290.33660129 -376.75 280.4375 C-376.05132812 279.65890625 -375.35265625 278.8803125 -374.6328125 278.078125 C-361.06027054 263.6844684 -341.14589063 254.99065165 -321.38500977 254.32397461 C-320.24862061 254.32921143 -319.11223145 254.33444824 -317.94140625 254.33984375 C-316.70068359 254.34306641 -315.45996094 254.34628906 -314.18164062 254.34960938 C-312.26641602 254.36217773 -312.26641602 254.36217773 -310.3125 254.375 C-308.35666992 254.38176758 -308.35666992 254.38176758 -306.36132812 254.38867188 C-303.15750448 254.40040749 -299.95377637 254.41682637 -296.75 254.4375 C-296.3159082 253.58365723 -295.88181641 252.72981445 -295.43457031 251.85009766 C-286.65798658 234.75581857 -274.79863721 218.08517842 -257.75 208.4375 C-259.70943466 205.73879145 -261.72269163 203.08550411 -263.75 200.4375 C-264.59691406 199.27541016 -264.59691406 199.27541016 -265.4609375 198.08984375 C-266.03070313 197.35894531 -266.60046875 196.62804687 -267.1875 195.875 C-267.95900391 194.85212891 -267.95900391 194.85212891 -268.74609375 193.80859375 C-270.77551418 192.10967666 -270.77551418 192.10967666 -273.85546875 192.703125 C-275.78326172 193.06664062 -275.78326172 193.06664062 -277.75 193.4375 C-313.67030646 195.98853679 -343.36185616 179.66553476 -369.88012695 156.74121094 C-377.69717937 149.90306742 -384.305515 142.59906532 -390.75 134.4375 C-391.48347656 133.52097656 -392.21695313 132.60445312 -392.97265625 131.66015625 C-410.70616843 108.85992631 -423.53785159 80.88829159 -421.75 51.4375 C-419.83333802 37.52283583 -415.15039588 27.02640002 -404.75 17.4375 C-392.02234086 7.81068775 -376.69751907 6.34973389 -361.25 8.0625 C-341.57969591 11.21057168 -322.73481546 19.62649746 -306.75 31.4375 C-305.71875 32.18515625 -304.6875 32.9328125 -303.625 33.703125 C-292.37119911 42.01265702 -281.47709223 51.4634323 -272.75 62.4375 C-271.97269531 63.40042969 -271.19539062 64.36335938 -270.39453125 65.35546875 C-250.57265146 90.26736471 -236.32847622 120.0037572 -238.75 152.4375 C-239.80785344 159.4801955 -241.62448132 166.03762842 -244.75 172.4375 C-244.04037109 173.22060547 -244.04037109 173.22060547 -243.31640625 174.01953125 C-228.95308664 190.00677394 -228.95308664 190.00677394 -226.6015625 194.7578125 C-223.34096312 197.71574021 -219.13848671 196.69965228 -214.9375 196.5 C-195.19404069 196.06814734 -173.52059744 198.70199894 -155.20336914 206.52514648 C-152.56139476 207.66987101 -152.56139476 207.66987101 -148.75 207.4375 C-146.99653187 205.40663298 -145.58214405 203.50424328 -144.1328125 201.26953125 C-143.71200409 200.63770432 -143.29119568 200.00587738 -142.8576355 199.35490417 C-141.97161125 198.015244 -141.09280189 196.67078837 -140.22070312 195.32202148 C-138.88146574 193.2599555 -137.50927305 191.2228957 -136.1328125 189.18554688 C-135.27654841 187.88158322 -134.42231199 186.57628534 -133.5703125 185.26953125 C-133.15693634 184.66099808 -132.74356018 184.0524649 -132.31765747 183.42549133 C-131.03005615 181.48495376 -131.03005615 181.48495376 -129.75 178.4375 C-130.30386517 175.68103622 -130.30386517 175.68103622 -131.75 173.4375 C-132.59194931 171.37850217 -133.42471328 169.31573293 -134.25 167.25 C-134.6728125 166.20457031 -135.095625 165.15914062 -135.53125 164.08203125 C-145.76111695 133.49079451 -136.47475262 97.68864364 -122.93798828 69.54711914 C-114.57641908 52.86171703 -103.52973484 37.99176422 -90.75 24.4375 C-90.07839844 23.70144531 -89.40679687 22.96539062 -88.71484375 22.20703125 C-67.08106628 -0.63985524 -29.35156906 -19.5543285 0 0 Z M-7.75 21.4375 C-7.46253906 22.13875 -7.17507813 22.84 -6.87890625 23.5625 C-5.72663011 26.4970164 -4.69012721 29.44867971 -3.6875 32.4375 C-3.17509766 33.9534375 -3.17509766 33.9534375 -2.65234375 35.5 C5.49267136 62.01537387 -5.6624351 91.97629574 -17.890625 115.29296875 C-21.61143612 122.13740832 -25.87824433 128.37008478 -30.75 134.4375 C-31.1934375 134.99759766 -31.636875 135.55769531 -32.09375 136.13476562 C-45.02199956 152.35016955 -61.65478216 167.41936327 -82.75 171.4375 C-94.4772377 172.19692262 -103.36493428 171.23327617 -112.60546875 163.67578125 C-116.5918294 159.51515346 -119.07975117 154.49691885 -121.75 149.4375 C-122.41 148.4475 -123.07 147.4575 -123.75 146.4375 C-123.41461421 155.32522333 -119.49719895 162.78948029 -113.5 169.3125 C-106.34016671 175.88882265 -97.14374693 179.37609547 -87.49609375 179.46875 C-67.42457504 178.5874539 -51.0878429 168.78239091 -36.75 155.4375 C-35.87730469 154.64601562 -35.00460937 153.85453125 -34.10546875 153.0390625 C-11.37518019 131.49003303 4.9859885 97.92787334 6.25 66.4375 C6.28996094 65.66792969 6.32992187 64.89835937 6.37109375 64.10546875 C6.77643335 49.34633874 3.85957838 34.44947297 -5.515625 22.73046875 C-5.92296875 22.30378906 -6.3303125 21.87710938 -6.75 21.4375 C-7.08 21.4375 -7.41 21.4375 -7.75 21.4375 Z M-385.75 29.4375 C-382.15287965 30.6423607 -379.2342602 30.25540063 -375.5 29.8125 C-352.09268304 28.0212472 -329.61791391 40.02188565 -312.125 54.6875 C-309.96288985 56.56538595 -307.84883502 58.48929907 -305.75 60.4375 C-305.17507813 60.96859375 -304.60015625 61.4996875 -304.0078125 62.046875 C-283.25840185 81.43715394 -265.50622411 107.50924581 -263.53515625 136.609375 C-263.20825716 147.75009599 -265.1361892 157.92794675 -272.75 166.4375 C-281.20794535 173.71674864 -291.00075552 175.72967611 -301.75 177.4375 C-301.75 177.7675 -301.75 178.0975 -301.75 178.4375 C-288.503061 179.15247722 -277.1664785 177.69748116 -266.90625 168.703125 C-263.36540556 164.98267251 -260.91962554 161.07749126 -258.75 156.4375 C-258.41097656 155.7259375 -258.07195312 155.014375 -257.72265625 154.28125 C-251.39890431 137.72875643 -256.30330678 117.09725732 -263.21875 101.55859375 C-278.98951378 69.41359309 -304.89703062 42.35036813 -338.96484375 29.7265625 C-354.9626329 24.27839901 -369.92071601 23.36599381 -385.75 29.4375 Z M-124.75 143.4375 C-123.75 146.4375 -123.75 146.4375 -123.75 146.4375 Z M-244.75 188.4375 C-244.75 193.30933326 -243.00653138 195.17413997 -240.0625 198.75 C-239.57354248 199.35811523 -239.08458496 199.96623047 -238.58081055 200.59277344 C-234.30105223 205.8711645 -229.85026433 211.00142597 -225.37597656 216.11499023 C-221.79145103 220.21395169 -218.33343192 224.38406101 -214.9609375 228.66015625 C-207.76579061 237.69858282 -200.36010782 246.57576345 -192.875 255.375 C-189.18008666 259.71889509 -185.57597613 264.12261718 -182.03125 268.58984375 C-174.78716293 277.63254833 -167.38218417 286.54981126 -159.875 295.375 C-156.18008666 299.71889509 -152.57597613 304.12261718 -149.03125 308.58984375 C-141.78716293 317.63254833 -134.38218417 326.54981126 -126.875 335.375 C-123.18008666 339.71889509 -119.57597613 344.12261718 -116.03125 348.58984375 C-108.78716293 357.63254833 -101.38218417 366.54981126 -93.875 375.375 C-90.18008666 379.71889509 -86.57597613 384.12261718 -83.03125 388.58984375 C-75.78716293 397.63254833 -68.38218417 406.54981126 -60.875 415.375 C-57.18008666 419.71889509 -53.57597613 424.12261718 -50.03125 428.58984375 C-42.78716293 437.63254833 -35.38218417 446.54981126 -27.875 455.375 C-24.18008666 459.71889509 -20.57597613 464.12261718 -17.03125 468.58984375 C-9.78716293 477.63254833 -2.38218417 486.54981126 5.125 495.375 C8.81991334 499.71889509 12.42402387 504.12261718 15.96875 508.58984375 C24.86773096 519.69833197 34.01853859 530.60466263 43.25 541.4375 C44.24 541.1075 45.23 540.7775 46.25 540.4375 C44.88146141 536.36789841 43.06892472 533.85291717 40.125 530.75 C36.35317233 526.67786758 32.84815929 522.49432762 29.4140625 518.13671875 C26.91563354 515.02044725 24.34043436 511.97729091 21.75 508.9375 C17.92886849 504.44765428 14.19626949 499.90398204 10.53125 495.28515625 C3.28716293 486.24245167 -4.11781583 477.32518874 -11.625 468.5 C-15.31991334 464.15610491 -18.92402387 459.75238282 -22.46875 455.28515625 C-29.71283707 446.24245167 -37.11781583 437.32518874 -44.625 428.5 C-48.31991334 424.15610491 -51.92402387 419.75238282 -55.46875 415.28515625 C-62.71283707 406.24245167 -70.11781583 397.32518874 -77.625 388.5 C-81.31991334 384.15610491 -84.92402387 379.75238282 -88.46875 375.28515625 C-95.71283707 366.24245167 -103.11781583 357.32518874 -110.625 348.5 C-114.31991334 344.15610491 -117.92402387 339.75238282 -121.46875 335.28515625 C-128.71283707 326.24245167 -136.11781583 317.32518874 -143.625 308.5 C-147.31991334 304.15610491 -150.92402387 299.75238282 -154.46875 295.28515625 C-161.71283707 286.24245167 -169.11781583 277.32518874 -176.625 268.5 C-180.32414384 264.15113136 -183.93245016 259.74249155 -187.48046875 255.26953125 C-192.21825183 249.35749556 -197.06685364 243.53517545 -201.89013672 237.69287109 C-203.72257873 235.47075252 -205.55138335 233.24569649 -207.37890625 231.01953125 C-213.19421798 223.93857139 -219.03839834 216.88772588 -224.97802734 209.91064453 C-227.72890364 206.67063222 -230.41658193 203.3886541 -233.0625 200.0625 C-237.77519416 194.13935524 -237.77519416 194.13935524 -242.75 188.4375 C-243.41 188.4375 -244.07 188.4375 -244.75 188.4375 Z M-120.75 201.4375 C-126.03487351 207.16522308 -130.22003778 213.97237558 -134.4609375 220.484375 C-135.07337311 221.41743469 -135.68580872 222.35049438 -136.31680298 223.31182861 C-138.25646748 226.26804585 -140.19105522 229.22753847 -142.125 232.1875 C-144.67227998 236.07956946 -147.2218652 239.97011823 -149.7734375 243.859375 C-150.38096863 244.78576782 -150.98849976 245.71216064 -151.61444092 246.66662598 C-156.21743874 253.66836471 -160.91912187 260.59091811 -165.75 267.4375 C-165.09 268.7575 -164.43 270.0775 -163.75 271.4375 C-159.42725318 267.63072569 -156.58242642 262.87840931 -153.47265625 258.08984375 C-152.86546249 257.16393936 -152.25826874 256.23803497 -151.63267517 255.28407288 C-149.688083 252.31732069 -147.7499297 249.34643354 -145.8125 246.375 C-143.91329931 243.46858495 -142.01266453 240.56312303 -140.11019897 237.65884399 C-138.85471004 235.74222954 -137.6008159 233.82456942 -136.34854126 231.90585327 C-133.25411608 227.18090969 -130.11623311 222.49694875 -126.87451172 217.87158203 C-126.26353134 216.99715958 -125.65255096 216.12273712 -125.02305603 215.22181702 C-123.86397478 213.57127456 -122.69602722 211.92691253 -121.51808167 210.28977966 C-121.00607712 209.56065872 -120.49407257 208.83153778 -119.96655273 208.08032227 C-119.512556 207.44602798 -119.05855927 206.8117337 -118.59080505 206.15821838 C-117.41767495 204.26677549 -117.41767495 204.26677549 -118.75 201.4375 C-119.41 201.4375 -120.07 201.4375 -120.75 201.4375 Z M-204.75 220.4375 C-202.33768938 224.82576471 -199.34852943 228.38751388 -196.0625 232.125 C-184.1331936 245.8627096 -184.1331936 245.8627096 -179.75 252.4375 C-179.09 252.4375 -178.43 252.4375 -177.75 252.4375 C-175.93794251 250.14044949 -175.93794251 250.14044949 -174.0546875 247.1875 C-173.33925781 246.1046875 -172.62382812 245.021875 -171.88671875 243.90625 C-171.13266335 242.75009726 -170.37875907 241.59384595 -169.625 240.4375 C-168.86391537 239.2808325 -168.10220455 238.12457677 -167.33984375 236.96875 C-165.47034394 234.12900346 -163.60741598 231.28515916 -161.75 228.4375 C-165.97504185 226.16616293 -170.137874 225.35531639 -174.8125 224.4375 C-175.68487305 224.26379883 -176.55724609 224.09009766 -177.45605469 223.91113281 C-186.49847757 222.18057217 -195.5838829 221.22553722 -204.75 220.4375 Z M-261.75 238.4375 C-262.52988281 239.08332031 -263.30976563 239.72914063 -264.11328125 240.39453125 C-275.23816586 249.95802855 -284.03493652 261.47383697 -292.36816406 273.46289062 C-295.06308914 277.3138719 -297.8148516 281.12405713 -300.5625 284.9375 C-301.10189209 285.6912793 -301.64128418 286.44505859 -302.19702148 287.22167969 C-305.23253539 291.43869232 -308.37085928 295.48996407 -311.75 299.4375 C-311.75 295.95967417 -310.89540783 293.53433149 -309.78125 290.23828125 C-309.37519531 289.02978516 -308.96914063 287.82128906 -308.55078125 286.57617188 C-308.11728466 285.30074822 -307.68368964 284.02535802 -307.25 282.75 C-306.81599344 281.46302976 -306.38239483 280.17592188 -305.94921875 278.88867188 C-304.88682439 275.73690193 -303.8202596 272.58660604 -302.75 269.4375 C-317.90548992 272.89530595 -327.92234533 279.62486288 -338.75 290.4375 C-339.56597656 291.241875 -340.38195312 292.04625 -341.22265625 292.875 C-355.32177573 307.57871294 -363.20606002 327.0064796 -363.11352539 347.26171875 C-362.81758267 360.77249056 -357.15265675 372.01030855 -347.875 381.75 C-343.87501509 385.55390721 -339.4502196 388.56514358 -334.75 391.4375 C-334.09 391.1075 -333.43 390.7775 -332.75 390.4375 C-333.18570313 389.93863281 -333.62140625 389.43976563 -334.0703125 388.92578125 C-346.15579395 374.35518998 -350.47843703 357.02635113 -348.75 338.4375 C-346.96907513 325.89978894 -341.4641223 313.67975092 -332.75 304.4375 C-333.76434172 307.48052517 -335.10465678 309.99116655 -336.625 312.8125 C-343.23702246 326.02065064 -344.82528427 340.20225229 -340.78515625 354.46484375 C-335.87534823 368.56433018 -327.69828627 378.67215884 -315.75 387.4375 C-315.09 387.1075 -314.43 386.7775 -313.75 386.4375 C-314.17410156 385.95023438 -314.59820312 385.46296875 -315.03515625 384.9609375 C-326.4585734 371.15241128 -332.23059666 355.38719926 -330.75 337.4375 C-329.59142221 329.99206597 -327.5018814 322.4412935 -322.75 316.4375 C-320.58984375 315.1953125 -320.58984375 315.1953125 -318.75 314.4375 C-319.02714844 315.17355469 -319.30429687 315.90960938 -319.58984375 316.66796875 C-319.95207031 317.64378906 -320.31429687 318.61960937 -320.6875 319.625 C-321.04714844 320.58792969 -321.40679687 321.55085938 -321.77734375 322.54296875 C-325.63374043 334.01923355 -324.15088644 346.29499304 -319.53125 357.35546875 C-315.09293774 366.09647817 -308.67536115 373.64842588 -300.75 379.4375 C-300.09 379.4375 -299.43 379.4375 -298.75 379.4375 C-300.26771388 376.1992095 -302.12693331 373.33719931 -304.125 370.375 C-311.33652778 359.15205989 -313.83560711 347.69036601 -312.75 334.4375 C-311.73043376 330.60856127 -310.39622844 327.03862472 -308.75 323.4375 C-307.76 323.9325 -307.76 323.9325 -306.75 324.4375 C-306.79640625 325.38109375 -306.8428125 326.3246875 -306.890625 327.296875 C-307.27898982 341.1115663 -304.06327451 352.96244258 -294.83203125 363.66015625 C-290.81568707 367.81633446 -286.55315699 371.23539534 -281.75 374.4375 C-281.09 374.1075 -280.43 373.7775 -279.75 373.4375 C-280.17410156 373.02242187 -280.59820312 372.60734375 -281.03515625 372.1796875 C-289.29038227 363.50716435 -295.14199147 351.94961941 -296 339.9375 C-295.70980831 335.87481632 -294.84972797 332.3552809 -293.75 328.4375 C-293.8325 329.530625 -293.915 330.62375 -294 331.75 C-293.9049669 342.54576042 -288.23413277 351.07302633 -280.75 358.4375 C-273.85122363 364.28598189 -266.31649148 368.54426819 -257.75 371.4375 C-250.05230335 361.26000846 -243.16997292 350.54752331 -236.1875 339.875 C-228.78038881 328.56457996 -221.367267 317.26474483 -213.69921875 306.12890625 C-213.15621628 305.33802109 -212.61321381 304.54713593 -212.05375671 303.73228455 C-209.50760302 300.02582878 -206.94911259 296.32906277 -204.36889648 292.64624023 C-203.4667688 291.33743258 -202.56512701 290.02828983 -201.6640625 288.71875 C-201.03977608 287.84368553 -201.03977608 287.84368553 -200.40287781 286.95094299 C-198.25615775 283.84825449 -198.25615775 283.84825449 -197.89599609 280.19555664 C-199.16198061 277.5893947 -200.87733781 275.5825306 -202.75 273.375 C-203.57113281 272.39660156 -204.39226562 271.41820312 -205.23828125 270.41015625 C-206.06714844 269.42917969 -206.89601563 268.44820313 -207.75 267.4375 C-209.14922874 265.7319466 -210.54508914 264.02362404 -211.9375 262.3125 C-213.54099204 260.3536092 -215.14504239 258.39518918 -216.75 256.4375 C-217.27255371 255.80005859 -217.79510742 255.16261719 -218.33349609 254.50585938 C-224.54369822 246.93512453 -230.76590753 239.37414702 -237.0625 231.875 C-237.52446777 231.32086426 -237.98643555 230.76672852 -238.46240234 230.19580078 C-239.53572622 228.92366758 -240.63953252 227.67734233 -241.75 226.4375 C-248.61072571 226.4375 -256.82919428 234.26201425 -261.75 238.4375 Z M-98.75 238.4375 C-99.08938946 241.50385838 -99.08938946 241.50385838 -96.984375 243.34765625 C-94.24658178 245.71954943 -91.50737991 248.08835556 -88.75 250.4375 C-87.68414217 251.37414306 -86.61904844 252.31165629 -85.5546875 253.25 C-84.49567779 254.16769025 -83.43579894 255.08437859 -82.375 256 C-81.39789063 256.84691406 -80.42078125 257.69382812 -79.4140625 258.56640625 C-76.74702916 260.82066674 -76.74702916 260.82066674 -72.75 260.4375 C-72.75 261.0975 -72.75 261.7575 -72.75 262.4375 C-80.3615441 261.32874388 -86.5932201 258.94395225 -93.4375 255.5 C-94.41630127 255.02216064 -95.39510254 254.54432129 -96.40356445 254.05200195 C-100.61074791 251.99683221 -104.80282516 249.91251561 -108.98828125 247.81347656 C-111.11456496 246.7484064 -113.24381716 245.68923859 -115.3762207 244.63647461 C-117.38702933 243.6436589 -119.39109139 242.63703711 -121.38745117 241.61547852 C-122.29470947 241.16873779 -123.20196777 240.72199707 -124.13671875 240.26171875 C-124.93295654 239.86041748 -125.72919434 239.45911621 -126.54956055 239.0456543 C-128.73265296 238.20919852 -128.73265296 238.20919852 -130.72045898 239.18371582 C-132.9406366 240.55526907 -133.96585048 241.74118575 -135.4230957 243.88989258 C-135.90651932 244.59435013 -136.38994293 245.29880768 -136.88801575 246.02461243 C-137.39547836 246.78606064 -137.90294098 247.54750885 -138.42578125 248.33203125 C-138.95519821 249.1164006 -139.48461517 249.90076996 -140.03007507 250.70890808 C-141.14499231 252.36762006 -142.25505795 254.02960196 -143.3605957 255.69458008 C-145.05689769 258.24158809 -146.77829097 260.77028191 -148.50195312 263.29882812 C-149.58230293 264.91301031 -150.66113138 266.52821198 -151.73828125 268.14453125 C-152.25586502 268.89990677 -152.77344879 269.65528229 -153.30671692 270.43354797 C-156.04959778 274.50556849 -156.04959778 274.50556849 -156.72949219 279.2421875 C-155.72691433 281.48924135 -154.73989599 283.03613851 -153.08984375 284.85546875 C-152.54763184 285.46471191 -152.00541992 286.07395508 -151.44677734 286.70166016 C-150.86621582 287.3363623 -150.2856543 287.97106445 -149.6875 288.625 C-148.48945351 289.96877683 -147.29283554 291.31382864 -146.09765625 292.66015625 C-145.51773926 293.31000488 -144.93782227 293.95985352 -144.34033203 294.62939453 C-142.35860138 296.88249511 -140.47987715 299.20421151 -138.625 301.5625 C-135.581485 305.42789247 -132.4396749 309.1930048 -129.25 312.9375 C-124.64085899 318.35385162 -120.16353778 323.86014902 -115.75 329.4375 C-114.25094414 331.31325492 -112.75096151 333.18826961 -111.25 335.0625 C-110.08333333 336.52083333 -108.91666667 337.97916667 -107.75 339.4375 C-97.52028958 331.55209822 -89.49487091 320.37284706 -87.2265625 307.45703125 C-86.98160461 305.11006981 -86.80739103 302.79574953 -86.75 300.4375 C-84.5129544 302.6745456 -85.43853099 307.22535869 -85.43530273 310.23803711 C-85.67364549 322.28915473 -90.9339048 336.1897506 -98.52734375 345.65234375 C-98.93082031 346.24144531 -99.33429688 346.83054687 -99.75 347.4375 C-99.42 348.4275 -99.09 349.4175 -98.75 350.4375 C-88.29982789 347.04825499 -81.16290473 336.21354487 -76.34375 326.8359375 C-71.57088423 316.65850313 -71.40907159 307.4482249 -71.75 296.4375 C-71.75 295.4475 -71.75 294.4575 -71.75 293.4375 C-69.1670379 299.92885276 -68.23067587 305.65641871 -68.3125 312.625 C-68.32079834 313.54410156 -68.32909668 314.46320313 -68.33764648 315.41015625 C-68.71466938 330.73794817 -74.94005117 342.50004678 -82.75 355.4375 C-71.40836648 351.38835553 -63.37458406 341.81289741 -58.1796875 331.2421875 C-51.9062345 316.65192824 -52.37596022 303.19992254 -57.75 288.4375 C-58.10398659 287.10950061 -58.4467906 285.77800474 -58.75 284.4375 C-49.56538761 297.70416233 -46.58021462 313.67277753 -49.3984375 329.55078125 C-51.28742351 338.54360036 -54.74568607 345.69683707 -59.75 353.4375 C-60.43788378 354.76001205 -61.11374276 356.0893906 -61.75 357.4375 C-57.32781402 356.00393422 -54.23818877 353.61252636 -50.875 350.5 C-50.3497876 350.01418457 -49.8245752 349.52836914 -49.28344727 349.02783203 C-39.27380173 339.44855961 -34.0162193 327.74075508 -33.5 313.9375 C-33.68612966 302.63435349 -36.95890745 293.11373358 -42.2265625 283.30078125 C-43.75 280.4375 -43.75 280.4375 -44.75 277.4375 C-32.58470259 291.11574049 -26.72205963 307.13007652 -27.40625 325.44921875 C-28.37116445 339.68515307 -35.38482112 351.28392816 -43.75 362.4375 C-30.89107395 357.84171055 -21.916375 347.83652378 -16.1081543 335.84643555 C-8.29591363 318.84067255 -9.13140437 300.5472303 -14.88671875 282.96484375 C-16.08233643 279.74007051 -17.37009514 276.58746139 -18.75 273.4375 C-19.3378125 272.09365234 -19.3378125 272.09365234 -19.9375 270.72265625 C-27.28312768 255.04070768 -39.39622699 244.62190599 -55.40625 238.40625 C-68.73095515 234.27099668 -85.26685956 235.25161028 -98.75 238.4375 Z M-184.75 296.4375 C-186.60048961 299.03411702 -188.39631843 301.64936167 -190.171875 304.296875 C-190.73562332 305.13213211 -191.29937164 305.96738922 -191.88020325 306.82795715 C-193.75724379 309.61194958 -195.62880983 312.39957261 -197.5 315.1875 C-198.8045643 317.12624884 -200.10917099 319.06496917 -201.41381836 321.00366211 C-213.70475267 339.29020154 -225.82639053 357.68747326 -237.92060852 376.10444641 C-241.99665878 382.30583242 -246.10783195 388.48309745 -250.23062134 394.6534729 C-253.92630613 400.1896119 -257.59232641 405.74471323 -261.24609375 411.30859375 C-274.06431795 430.82374684 -286.96850327 450.27339682 -300.05783081 469.60787964 C-309.83184682 484.05033777 -319.46863073 498.57796486 -329.03530884 513.15847778 C-335.94078233 523.68080532 -342.8924773 534.16819917 -349.94921875 544.58984375 C-350.95802597 546.08023666 -350.95802597 546.08023666 -351.98721313 547.60073853 C-355.22998509 552.38812308 -358.47966508 557.17065264 -361.73828125 561.94726562 C-362.90243034 563.66139953 -364.06649734 565.37558919 -365.23046875 567.08984375 C-365.76234299 567.86480698 -366.29421722 568.6397702 -366.84220886 569.43821716 C-369.25818792 573.00399056 -371.38387581 576.31163182 -372.75 580.4375 C-371.43 580.4375 -370.11 580.4375 -368.75 580.4375 C-366.93721773 578.69587556 -366.93721773 578.69587556 -365.32421875 576.1875 C-364.62474121 575.17558594 -363.92526367 574.16367187 -363.20458984 573.12109375 C-362.38421979 571.89468024 -361.56619645 570.66669506 -360.75 569.4375 C-360.05659515 568.39940186 -360.05659515 568.39940186 -359.34918213 567.34033203 C-356.00895513 562.33019606 -352.70455317 557.29700461 -349.40814209 552.25796509 C-337.28246013 533.72779457 -324.98868894 515.31692195 -312.55786133 496.99023438 C-306.45506321 487.98559358 -300.44252547 478.93438673 -294.55615234 469.78686523 C-289.2238074 461.50548423 -283.79346099 453.28766683 -278.375 445.0625 C-277.75294678 444.11785889 -277.13089355 443.17321777 -276.48999023 442.19995117 C-266.5780357 427.15580406 -256.54826487 412.19498411 -246.44848633 397.27645874 C-236.53675322 382.63146104 -226.76999247 367.89607146 -217.06240845 353.1151123 C-205.45426569 335.44473995 -193.65599389 317.90830931 -181.75 300.4375 C-182.74 298.4575 -182.74 298.4575 -183.75 296.4375 C-184.08 296.4375 -184.41 296.4375 -184.75 296.4375 Z M-176.75 306.4375 C-177.65592354 307.67158616 -178.5129763 308.94154034 -179.35107422 310.22265625 C-180.16860672 311.46656128 -180.16860672 311.46656128 -181.00265503 312.7355957 C-181.59732574 313.64784912 -182.19199646 314.56010254 -182.8046875 315.5 C-183.72896042 316.9080188 -183.72896042 316.9080188 -184.67190552 318.34448242 C-186.65955884 321.37334712 -188.64257255 324.40521282 -190.625 327.4375 C-193.20345935 331.37649171 -195.78413713 335.31401739 -198.3671875 339.25 C-199.30809235 340.68400146 -199.30809235 340.68400146 -200.26800537 342.14697266 C-205.64714031 350.32416993 -211.15619414 358.40596629 -216.75 366.4375 C-213.63801869 367.39603713 -211.25977059 367.43759828 -208.03930664 367.03198242 C-207.10635269 366.91823776 -206.17339874 366.8044931 -205.21217346 366.68730164 C-203.70142494 366.49210686 -203.70142494 366.49210686 -202.16015625 366.29296875 C-200.57865028 366.09819695 -200.57865028 366.09819695 -198.9651947 365.89949036 C-195.58006478 365.48155173 -192.1962639 365.05384633 -188.8125 364.625 C-184.40804692 364.07279125 -180.00301693 363.5253862 -175.59765625 362.98046875 C-174.51690826 362.84567108 -173.43616028 362.71087341 -172.32266235 362.57199097 C-164.39755447 361.59809905 -156.46617675 360.78933912 -148.50587463 360.16215515 C-143.67559113 359.75088319 -139.36721137 358.92815663 -134.75 357.4375 C-136.08442396 354.55624006 -137.59297506 352.22400046 -139.62109375 349.78515625 C-140.19005371 349.09752197 -140.75901367 348.4098877 -141.34521484 347.70141602 C-141.95316895 346.97494873 -142.56112305 346.24848145 -143.1875 345.5 C-143.81350098 344.74581787 -144.43950195 343.99163574 -145.08447266 343.21459961 C-149.34854986 338.08653423 -153.65234868 332.99246214 -157.97509766 327.91381836 C-161.38632735 323.89675529 -164.6839169 319.79849353 -167.9609375 315.671875 C-170.4836671 312.52121707 -173.06420704 309.45082869 -175.75 306.4375 C-176.08 306.4375 -176.41 306.4375 -176.75 306.4375 Z M-132.3125 379.3203125 C-133.87847679 379.46237877 -133.87847679 379.46237877 -135.47608948 379.60731506 C-138.90118569 379.9209547 -142.3256549 380.24076719 -145.75 380.5625 C-146.91973358 380.67187897 -148.08946716 380.78125793 -149.29464722 380.89395142 C-166.34231564 382.50043081 -183.33699922 384.38059239 -200.3125 386.625 C-201.26809814 386.75110657 -202.22369629 386.87721313 -203.20825195 387.00714111 C-208.34525195 387.68949979 -213.47641024 388.40372233 -218.60528564 389.14447021 C-220.57850012 389.41406817 -222.55851508 389.63259307 -224.53857422 389.84619141 C-225.60736816 389.97558105 -226.67616211 390.1049707 -227.77734375 390.23828125 C-228.660271 390.32891846 -229.54319824 390.41955566 -230.45288086 390.51293945 C-233.63600659 391.54285816 -233.63600659 391.54285816 -236.75 397.4375 C-222.395 396.4475 -222.395 396.4475 -207.75 395.4375 C-207.75 396.0975 -207.75 396.7575 -207.75 397.4375 C-209.26787109 397.53417969 -209.26787109 397.53417969 -210.81640625 397.6328125 C-217.00595139 398.41042782 -222.82355009 400.58123934 -228.6887207 402.62060547 C-230.70251752 403.31769844 -232.72274477 403.99327445 -234.74414062 404.66796875 C-236.02648089 405.10809736 -237.30839881 405.5494589 -238.58984375 405.9921875 C-239.74863037 406.38905762 -240.90741699 406.78592773 -242.10131836 407.19482422 C-243.41241577 407.80994873 -243.41241577 407.80994873 -244.75 408.4375 C-245.08 409.4275 -245.41 410.4175 -245.75 411.4375 C-231.39811395 410.67792943 -217.07650737 409.57258368 -202.75 408.4375 C-202.75 409.0975 -202.75 409.7575 -202.75 410.4375 C-203.88695312 410.5418335 -205.02390625 410.64616699 -206.1953125 410.75366211 C-210.92358681 411.34904415 -215.16099201 412.75614944 -219.625 414.37890625 C-220.43493408 414.66603989 -221.24486816 414.95317352 -222.0793457 415.24900818 C-224.63901606 416.158403 -227.19449083 417.07898505 -229.75 418 C-231.49582761 418.6224917 -233.24191911 419.24424383 -234.98828125 419.86523438 C-239.24528555 421.38079126 -243.49856715 422.90638735 -247.75 424.4375 C-244.692186 425.36118846 -242.2463897 425.47151335 -239.07324219 425.18383789 C-238.15258972 425.10367935 -237.23193726 425.02352081 -236.28338623 424.94093323 C-235.29783752 424.84827682 -234.31228882 424.75562042 -233.296875 424.66015625 C-231.77383759 424.52485756 -231.77383759 424.52485756 -230.22003174 424.38682556 C-226.97942123 424.09749313 -223.73974391 423.79886494 -220.5 423.5 C-218.30213845 423.30212127 -216.10422227 423.10484829 -213.90625 422.90820312 C-208.52017988 422.42499412 -203.13484628 421.93415176 -197.75 421.4375 C-197.75 422.0975 -197.75 422.7575 -197.75 423.4375 C-198.89742676 423.54779541 -200.04485352 423.65809082 -201.22705078 423.77172852 C-205.74601731 424.34049178 -209.82981845 425.59079499 -214.1171875 427.08984375 C-214.87798615 427.35003799 -215.63878479 427.61023224 -216.42263794 427.87831116 C-218.01547923 428.42511521 -219.6070143 428.97573807 -221.19726562 429.5300293 C-223.63585591 430.37877839 -226.07918658 431.21263339 -228.5234375 432.04492188 C-230.07582154 432.57985732 -231.6279158 433.11563461 -233.1796875 433.65234375 C-234.2749324 434.02588234 -234.2749324 434.02588234 -235.39230347 434.40696716 C-239.42978536 435.81415839 -239.42978536 435.81415839 -242.75 438.4375 C-242.06075439 438.38215088 -241.37150879 438.32680176 -240.66137695 438.26977539 C-235.15330788 437.82767614 -229.64511405 437.38723573 -224.13671875 436.94921875 C-220.61767161 436.66894066 -217.09916477 436.38537377 -213.58203125 436.08203125 C-206.95380521 435.52496962 -200.4015029 435.31753301 -193.75 435.4375 C-194.56855469 435.68242187 -195.38710938 435.92734375 -196.23046875 436.1796875 C-210.53188371 440.5499829 -224.62968134 445.52029657 -238.75 450.4375 C-238.75 450.7675 -238.75 451.0975 -238.75 451.4375 C-228.12379851 450.89549241 -217.53858783 450.12147556 -206.94702148 449.09814453 C-200.86120877 448.53408059 -194.86110288 448.32551427 -188.75 448.4375 C-189.60335937 448.69402344 -190.45671875 448.95054687 -191.3359375 449.21484375 C-204.59344386 453.27410085 -217.66546949 457.85581744 -230.75 462.4375 C-230.75 462.7675 -230.75 463.0975 -230.75 463.4375 C-222.99640436 462.98951042 -215.33021907 462.17763117 -207.6328125 461.16796875 C-206.70687286 461.0465451 -205.78093323 460.92512146 -204.82693481 460.80001831 C-202.86512829 460.54220047 -200.90334716 460.28418927 -198.94158936 460.02600098 C-163.67097022 455.41385664 -128.25130431 452.56110386 -92.75 450.4375 C-92.32871376 441.45621943 -93.46369434 432.83863777 -94.77636719 423.98364258 C-95.12670102 421.6134919 -95.46259457 419.2416031 -95.796875 416.86914062 C-96.0173822 415.34362733 -96.23870741 413.81823201 -96.4609375 412.29296875 C-96.60950699 411.2428083 -96.60950699 411.2428083 -96.76107788 410.1714325 C-97.80188881 403.24917463 -99.35574961 398.44803186 -103.9375 393.125 C-107.54288244 388.90716477 -110.83664801 384.61198058 -113.94921875 380.01953125 C-118.11247905 376.36200322 -127.03869381 378.83544466 -132.3125 379.3203125 Z " fill="#604BE8" transform="translate(483.75,10.5625)"/>
</svg>
